<svg xmlns="http://www.w3.org/2000/svg" version="1.1" xmlns:xlink="http://www.w3.org/1999/xlink" xmlns:svgjs="http://svgjs.dev/svgjs" width="1000" height="1000" viewBox="0 0 1000 1000"><rect width="1000" height="1000" fill="#ffffff"></rect><g transform="matrix(0.7,0,0,0.7,149.57577231827872,386.20106938085024)"><svg viewBox="0 0 396 129" data-background-color="#ffffff" preserveAspectRatio="xMidYMid meet" height="325" width="1000" xmlns="http://www.w3.org/2000/svg" xmlns:xlink="http://www.w3.org/1999/xlink"><g id="tight-bounds" transform="matrix(1,0,0,1,0.2399916599451899,0.027745274155250854)"><svg viewBox="0 0 395.52 128.9445094516895" height="128.9445094516895" width="395.52"><g><svg viewBox="0 0 395.52 128.9445094516895" height="128.9445094516895" width="395.52"><g><svg viewBox="0 0 395.52 128.9445094516895" height="128.9445094516895" width="395.52"><g><svg viewBox="0 0 395.52 128.9445094516895" height="128.9445094516895" width="395.52"><g><svg viewBox="0 0 395.52 56.7393607305936" height="56.7393607305936" width="395.52"><g><svg viewBox="0 0 395.52 56.7393607305936" height="56.7393607305936" width="395.52"><g><svg viewBox="0 0 395.52 56.7393607305936" height="56.7393607305936" width="395.52"><g transform="matrix(1,0,0,1,0,0)"><svg width="395.52" viewBox="4.599999904632568 -37.150001525878906 262.7699890136719 37.70000076293945" height="56.7393607305936" data-palette-color="#1c4b82"><path d="M4.6-34.2L6.9-34.2 6.9-2.15 18.6-2.15 18.3 0 4.6 0 4.6-34.2ZM23.75-26.1L26-26.1 26 0 23.75 0 23.75-26.1ZM24.85-37.15Q25.6-37.15 26.07-36.65 26.55-36.15 26.55-35.45L26.55-35.45Q26.55-34.75 26.07-34.25 25.6-33.75 24.85-33.75L24.85-33.75Q24.1-33.75 23.62-34.25 23.15-34.75 23.15-35.45L23.15-35.45Q23.15-36.15 23.62-36.65 24.1-37.15 24.85-37.15L24.85-37.15ZM44.3-26.6Q47.14-26.6 48.67-24.6 50.2-22.6 50.2-19.1L50.2-19.1 50.2 0 47.95 0 47.95-18.8Q47.95-24.7 43.89-24.7L43.89-24.7Q40.14-24.7 37.05-18.85L37.05-18.85 37.05 0 34.8 0 34.8-26.1 36.74-26.1 36.95-21.45Q38.39-23.95 40.14-25.28 41.89-26.6 44.3-26.6L44.3-26.6ZM73.69-26.1L73.69 0 71.79 0 71.64-4.55Q68.99 0.55 64.69 0.55L64.69 0.55Q61.84 0.55 60.17-1.4 58.49-3.35 58.49-6.65L58.49-6.65 58.49-26.1 60.74-26.1 60.74-6.85Q60.74-4.15 61.87-2.78 62.99-1.4 64.99-1.4L64.99-1.4Q68.84-1.4 71.44-7L71.44-7 71.44-26.1 73.69-26.1ZM87.74-26.6Q91.54-26.6 94.54-23.75L94.54-23.75 93.39-22.35Q91.94-23.6 90.69-24.15 89.44-24.7 87.79-24.7L87.79-24.7Q85.59-24.7 84.24-23.43 82.89-22.15 82.89-19.9L82.89-19.9Q82.89-18 84.06-16.88 85.24-15.75 88.29-14.6L88.29-14.6Q91.94-13.25 93.52-11.55 95.09-9.85 95.09-6.9L95.09-6.9Q95.09-3.55 92.92-1.5 90.74 0.55 87.44 0.55L87.44 0.55Q85.04 0.55 83.22-0.33 81.39-1.2 79.79-2.8L79.79-2.8 81.04-4.1Q82.54-2.7 84.02-2.02 85.49-1.35 87.39-1.35L87.39-1.35Q89.79-1.35 91.31-2.8 92.84-4.25 92.84-6.85L92.84-6.85Q92.84-8.45 92.31-9.47 91.79-10.5 90.56-11.3 89.34-12.1 87.04-13L87.04-13Q83.59-14.3 82.12-15.88 80.64-17.45 80.64-19.9L80.64-19.9Q80.64-22.8 82.67-24.7 84.69-26.6 87.74-26.6L87.74-26.6ZM119.74-34.7Q122.29-34.7 124.11-33.77 125.94-32.85 127.69-31L127.69-31 126.34-29.65Q124.74-31.25 123.24-31.95 121.74-32.65 119.74-32.65L119.74-32.65Q117.09-32.65 115.46-30.93 113.84-29.2 113.84-26.55L113.84-26.55Q113.84-23.9 115.29-22.28 116.74-20.65 120.44-19.25L120.44-19.25Q124.64-17.6 126.59-15.4 128.54-13.2 128.54-9.25L128.54-9.25Q128.54-6.5 127.36-4.28 126.19-2.05 124.09-0.75 121.99 0.55 119.29 0.55L119.29 0.55Q116.54 0.55 114.39-0.55 112.24-1.65 110.39-3.7L110.39-3.7 111.74-5.05Q113.54-3.3 115.24-2.4 116.94-1.5 119.24-1.5L119.24-1.5Q122.39-1.5 124.26-3.63 126.14-5.75 126.14-9.2L126.14-9.2Q126.14-12.35 124.69-14.1 123.24-15.85 119.44-17.3L119.44-17.3Q115.14-19 113.31-21.1 111.49-23.2 111.49-26.5L111.49-26.5Q111.49-28.7 112.54-30.6 113.59-32.5 115.49-33.6 117.39-34.7 119.74-34.7L119.74-34.7ZM142.53-26.6Q146.83-26.6 149.18-23.23 151.53-19.85 151.53-13.15L151.53-13.15Q151.53-6.5 149.13-2.98 146.73 0.55 142.48 0.55L142.48 0.55Q138.23 0.55 135.86-2.95 133.48-6.45 133.48-13L133.48-13Q133.48-19.65 135.88-23.13 138.28-26.6 142.53-26.6L142.53-26.6ZM142.53-24.65Q139.33-24.65 137.58-21.83 135.83-19 135.83-13L135.83-13Q135.83-7.15 137.56-4.3 139.28-1.45 142.48-1.45L142.48-1.45Q149.18-1.45 149.18-13.15L149.18-13.15Q149.18-24.65 142.53-24.65L142.53-24.65ZM164.88-35.1Q163.03-35.1 162.06-34.13 161.08-33.15 161.08-31L161.08-31 161.08-26.1 166.83-26.1 166.48-24.2 161.08-24.2 161.08 0 158.83 0 158.83-24.2 155.18-24.2 155.18-26.1 158.83-26.1 158.83-31.15Q158.83-33.9 160.41-35.48 161.98-37.05 164.68-37.05L164.68-37.05Q167.28-37.05 169.68-35.6L169.68-35.6 168.88-33.95Q166.88-35.1 164.88-35.1L164.88-35.1ZM180.43-2.55L181.43-1.05Q179.33 0.55 176.93 0.55L176.93 0.55Q174.48 0.55 173.08-0.98 171.68-2.5 171.68-5.15L171.68-5.15 171.68-24.2 168.18-24.2 168.18-26.1 171.68-26.1 171.68-32.45 173.93-32.7 173.93-26.1 179.53-26.1 179.23-24.2 173.93-24.2 173.93-5.2Q173.93-3.45 174.73-2.45 175.53-1.45 177.13-1.45L177.13-1.45Q178.73-1.45 180.43-2.55L180.43-2.55ZM206.93-26.1L209.13-26.1 203.83 0 200.78 0 195.93-23.9 191.03 0 188.03 0 182.63-26.1 184.93-26.1 189.58-2 194.63-26.1 197.33-26.1 202.33-1.95 206.93-26.1ZM228.12-4.8Q228.12-3.15 228.55-2.33 228.97-1.5 229.92-1.05L229.92-1.05 229.42 0.55Q227.87 0.15 227.1-0.88 226.32-1.9 226.17-3.75L226.17-3.75Q223.82 0.55 219.52 0.55L219.52 0.55Q216.42 0.55 214.65-1.58 212.87-3.7 212.87-7.25L212.87-7.25Q212.87-11.3 215.3-13.45 217.72-15.6 222.17-15.6L222.17-15.6 225.92-15.6 225.92-18.8Q225.92-21.75 224.77-23.23 223.62-24.7 221.12-24.7L221.12-24.7Q219.62-24.7 218.2-24.33 216.77-23.95 215.07-23.25L215.07-23.25 214.37-24.9Q218.07-26.6 221.27-26.6L221.27-26.6Q224.72-26.6 226.42-24.63 228.12-22.65 228.12-18.95L228.12-18.95 228.12-4.8ZM219.82-1.35Q223.92-1.35 225.92-6.4L225.92-6.4 225.92-13.85 222.37-13.85Q215.22-13.85 215.22-7.3L215.22-7.3Q215.22-4.4 216.45-2.88 217.67-1.35 219.82-1.35L219.82-1.35ZM245.22-26.6Q246.17-26.6 247.27-26.3L247.27-26.3 246.87-24.3Q245.87-24.55 245.07-24.55L245.07-24.55Q242.87-24.55 241.5-22.63 240.12-20.7 239.17-16.75L239.17-16.75 239.17 0 236.92 0 236.92-26.1 238.87-26.1 239.02-20.8Q239.97-23.75 241.47-25.18 242.97-26.6 245.22-26.6L245.22-26.6ZM267.37-14.1Q267.37-13.05 267.27-12.05L267.27-12.05 252.77-12.05Q253.17-1.45 259.62-1.45L259.62-1.45Q261.32-1.45 262.62-2.05 263.92-2.65 265.32-3.95L265.32-3.95 266.52-2.6Q265.02-1.05 263.34-0.25 261.67 0.55 259.62 0.55L259.62 0.55Q255.32 0.55 252.89-2.88 250.47-6.3 250.47-12.85L250.47-12.85Q250.47-19.5 252.79-23.05 255.12-26.6 259.17-26.6L259.17-26.6Q263.22-26.6 265.29-23.4 267.37-20.2 267.37-14.1L267.37-14.1ZM265.17-13.85L265.17-14.85Q265.17-24.65 259.17-24.65L259.17-24.65Q256.37-24.65 254.64-22.08 252.92-19.5 252.77-13.85L252.77-13.85 265.17-13.85Z" opacity="1" transform="matrix(1,0,0,1,0,0)" fill="#1c4b82" class="undefined-text-0" data-fill-palette-color="primary" id="text-0"></path></svg></g></svg></g></svg></g></svg></g><g transform="matrix(1,0,0,1,143.53557426813177,70.13416205442923)"><svg viewBox="0 0 108.44885146373645 58.81034739726028" height="58.81034739726028" width="108.44885146373645"><g><svg xmlns="http://www.w3.org/2000/svg" data-name="Layer 1" viewBox="13.199999809265137 29.5 72.60000610351562 39.37000274658203" x="0" y="0" height="58.81034739726028" width="108.44885146373645" class="icon-icon-0" data-fill-palette-color="accent" id="icon-0"><polygon points="39.6 68.87 42.82 68.87 59.4 29.5 56.18 29.5 39.6 68.87" fill="#1c4b82" data-fill-palette-color="accent"></polygon><polygon points="66 29.5 66 34.14 81.13 49.17 66 64.21 66 68.84 85.8 49.17 66 29.5" fill="#1c4b82" data-fill-palette-color="accent"></polygon><polygon points="33 68.84 33 64.21 17.87 49.17 33 34.14 33 29.5 13.2 49.17 33 68.84" fill="#1c4b82" data-fill-palette-color="accent"></polygon></svg></g></svg></g><g></g></svg></g></svg></g></svg></g><defs></defs></svg><rect width="395.52" height="128.9445094516895" fill="none" stroke="none" visibility="hidden"></rect></g></svg></g></svg>